HIERARCHY
ROOT Hips
{
	OFFSET 0.000000 0.000000 0.000000
	CHANNELS 6 Xposition Yposition Zposition Yrotation Xrotation Zrotation
	JOINT Chest
	{
		OFFSET 0.000000 -0.009281 11.569106
		CHANNELS 3 Yrotation Xrotation Zrotation
		JOINT Chest2
		{
			OFFSET -0.000000 0.016865 9.269641
			CHANNELS 3 Yrotation Xrotation Zrotation
			JOINT Chest3
			{
				OFFSET -0.000000 0.000001 8.374491
				CHANNELS 3 Yrotation Xrotation Zrotation
				JOINT Chest4
				{
					OFFSET -0.000000 0.000001 8.374493
					CHANNELS 3 Yrotation Xrotation Zrotation
					JOINT Neck
					{
						OFFSET -0.000000 0.000002 12.152554
						CHANNELS 3 Yrotation Xrotation Zrotation
						JOINT Head
						{
							OFFSET -0.000000 0.040101 7.802319
							CHANNELS 3 Yrotation Xrotation Zrotation
							End Site
							{
								OFFSET -0.000000 0.020947 14.853096
							}
						}
					}
					JOINT RightCollar
					{
						OFFSET 2.894404 0.000001 6.791374
						CHANNELS 3 Yrotation Xrotation Zrotation
						JOINT RightShoulder
						{
							OFFSET 13.574684 0.000001 0.000000
							CHANNELS 3 Yrotation Xrotation Zrotation
							JOINT RightElbow
							{
								OFFSET 23.923903 0.000002 0.000000
								CHANNELS 3 Yrotation Xrotation Zrotation
								JOINT RightWrist
								{
									OFFSET 19.846718 0.012767 0.000000
									CHANNELS 3 Yrotation Xrotation Zrotation
									End Site
									{
										OFFSET 14.973145 0.000001 0.000000
									}
								}
							}
						}
					}
					JOINT LeftCollar
					{
						OFFSET -2.894404 0.000001 6.791374
						CHANNELS 3 Yrotation Xrotation Zrotation
						JOINT LeftShoulder
						{
							OFFSET -13.574684 -0.000001 0.000000
							CHANNELS 3 Yrotation Xrotation Zrotation
							JOINT LeftElbow
							{
								OFFSET -23.923903 -0.000002 0.000000
								CHANNELS 3 Yrotation Xrotation Zrotation
								JOINT LeftWrist
								{
									OFFSET -19.846718 0.012763 0.000000
									CHANNELS 3 Yrotation Xrotation Zrotation
									End Site
									{
										OFFSET -14.973145 -0.000001 0.000000
									}
								}
							}
						}
					}
				}
			}
		}
	}
	JOINT RightHip
	{
		OFFSET 9.469263 0.004643 0.045487
		CHANNELS 3 Yrotation Xrotation Zrotation
		JOINT RightKnee
		{
			OFFSET 0.000000 0.002661 -40.478676
			CHANNELS 3 Yrotation Xrotation Zrotation
			JOINT RightAnkle
			{
				OFFSET 0.000000 0.049106 -35.224068
				CHANNELS 3 Yrotation Xrotation Zrotation
				JOINT RightToe
				{
					OFFSET -0.000001 12.539529 -6.151390
					CHANNELS 3 Yrotation Xrotation Zrotation
					End Site
					{
						OFFSET -0.000001 5.044994 -1.291870
					}
				}
			}
		}
	}
	JOINT LeftHip
	{
		OFFSET -9.469263 0.004641 0.045487
		CHANNELS 3 Yrotation Xrotation Zrotation
		JOINT LeftKnee
		{
			OFFSET 0.000000 0.002661 -40.478676
			CHANNELS 3 Yrotation Xrotation Zrotation
			JOINT LeftAnkle
			{
				OFFSET 0.000000 0.049106 -35.224068
				CHANNELS 3 Yrotation Xrotation Zrotation
				JOINT LeftToe
				{
					OFFSET -0.000001 12.539529 -6.151390
					CHANNELS 3 Yrotation Xrotation Zrotation
					End Site
					{
						OFFSET -0.000001 5.044994 -1.291870
					}
				}
			}
		}
	}
}
MOTION
Frames: 5
Frame Time: 0.016667
7.525695 3.131154 81.930267 -5.699376 -1.936031 -123.044833 -4.047321 -0.402974 8.024025 -2.081032 -0.537716 3.004849 -2.081031 -0.537717 3.004849 -1.558162 -0.413537 2.251823 2.020165 -18.819008 -11.208769 0.143841 0.828063 -19.893298 8.318799 4.222481 -1.864728 72.191316 34.508359 52.242064 -34.663999 9.002852 70.135948 -71.690451 26.245796 49.849507 -10.745655 1.047607 -6.002711 -50.924425 52.031896 -2.218318 1.717865 21.343013 -13.000338 68.539234 16.348867 -55.396721 -0.218051 4.464266 11.031953 4.340400 -24.999643 5.812510 -7.374244 11.522261 -9.881823 0.806906 0.656792 0.554324 -1.858586 -0.378835 0.310170 -1.957422 -20.142812 11.608459 8.187929 14.188450 8.783574 -0.249846 -0.329616 -0.418774 
7.653614 3.025051 82.014847 -5.679442 -1.959718 -122.606827 -4.037250 -0.347304 7.772035 -2.079744 -0.529683 2.975265 -2.079742 -0.529684 2.975269 -1.557262 -0.407405 2.229662 2.083971 -18.876930 -11.343777 0.226882 0.717419 -20.116029 8.251453 4.559850 -1.885634 71.431635 34.918581 52.033576 -34.818522 8.486304 69.207916 -71.681988 26.180926 49.849408 -10.731943 1.183615 -6.021565 -50.536703 52.031510 -2.355339 1.820371 20.840379 -12.914387 68.733771 15.859955 -55.331765 -0.204128 4.045477 10.724390 4.273336 -24.447469 5.787399 -7.370421 11.282590 -9.862188 0.719855 0.674549 0.527991 -1.745366 -0.691493 0.065656 -1.912555 -19.645171 11.534032 7.937468 13.987585 8.471117 -0.076706 -0.252450 -0.273333 
7.765441 2.933980 82.108612 -5.535183 -1.925229 -122.132020 -4.025822 -0.193270 7.484695 -2.079386 -0.527202 2.942848 -2.079386 -0.527203 2.942850 -1.557033 -0.405431 2.205359 2.157398 -18.903682 -11.476388 0.323942 0.665954 -20.333492 8.175409 4.940865 -1.909837 70.594964 35.267234 51.889555 -35.092248 8.086679 68.312444 -71.607369 26.162577 49.904145 -10.684808 1.291238 -6.097194 -50.077912 52.054350 -2.528221 1.881965 20.382992 -12.949418 68.868230 15.375369 -55.300879 -0.171013 3.704122 10.408016 4.199342 -23.766237 5.733975 -7.317636 10.989861 -9.943720 0.623905 0.688035 0.509218 -1.624336 -0.876687 -0.201512 -1.858364 -19.112970 11.446930 7.687413 13.784281 8.149316 0.088011 -0.211268 -0.120734 
7.909088 2.826266 82.213501 -5.525007 -1.959124 -121.826942 -4.040564 -0.201640 7.381917 -2.077618 -0.523692 2.904198 -2.077618 -0.523693 2.904196 -1.555755 -0.402659 2.176382 2.238118 -18.909978 -11.605098 0.432633 0.653724 -20.542940 8.065806 5.358797 -1.960062 69.699062 35.529196 51.795025 -35.451697 7.760174 67.451226 -71.481659 26.145054 49.988532 -10.648321 1.423559 -6.207199 -49.473051 52.060542 -2.667387 1.933347 19.953214 -13.091963 69.045201 14.947437 -55.260824 -0.157571 3.167275 10.301408 4.134879 -22.973860 5.629167 -7.247289 10.667502 -9.877871 0.550264 0.689404 0.541147 -1.555734 -1.336122 -0.270555 -1.778465 -18.383644 11.317933 7.539034 13.495553 7.919716 0.165486 -0.166326 -0.124196 
8.045536 2.731979 82.321213 -5.479702 -1.961687 -121.541372 -4.067038 -0.194158 7.287963 -2.073559 -0.520899 2.863246 -2.073559 -0.520898 2.863244 -1.552760 -0.400403 2.145679 2.322371 -18.895230 -11.733550 0.544859 0.680900 -20.752258 7.945183 5.789621 -1.989822 68.689218 35.784816 51.744192 -35.760313 7.467426 66.625026 -71.315788 26.080920 50.051076 -10.605296 1.565157 -6.327324 -48.798768 52.053466 -2.828334 1.993594 19.534271 -13.304074 69.228735 14.607784 -55.133950 -0.152988 2.634608 10.224626 4.077006 -22.080231 5.490136 -7.132399 10.319626 -9.872593 0.457737 0.674354 0.536617 -1.504479 -1.784397 -0.304464 -1.697515 -17.555774 11.166587 7.404654 13.133767 7.756493 0.234337 -0.125540 -0.122816 
